# AST/ASF file generated using VICON BodyLanguage
# -----------------------------------------------
:version 1.10
:name VICON
:units
  mass 1.0
  length 0.45
  angle deg
:documentation
   .ast/.asf automatically generated from VICON data using
   VICON BodyBuilder and BodyLanguage model FoxedUp or BRILLIANT.MOD
:root
   order TX TY TZ RX RY RZ
   axis XYZ
   position 0 0 0  
   orientation 0 0 0 
:bonedata
  begin
     id 1 
     name lhipjoint
     direction 0.64773 -0.699417 0.302095 
     length 2.48597 
     axis 0 0 0  XYZ
  end
  begin
     id 2 
     name lfemur
     direction 0.34202 -0.939693 0  
     length 6.71947  
     axis 0 0 20  XYZ
    dof rx ry rz
    limits (-160.0 20.0)
           (-70.0 70.0)
           (-60.0 70.0)
  end
  begin
     id 3 
     name ltibia
     direction 0.34202 -0.939693 0   
     length 8.08777   
     axis 0 0 20   XYZ
    dof rx
    limits (-10.0 170.0)
  end
  begin
     id 4 
     name lfoot
     direction 0.0808503 -0.222134 0.971658   
     length 2.08264   
     axis -90 7.62852e-016 20   XYZ
    dof rx rz
    limits (-45.0 90.0)
           (-70.0 20.0)
  end
  begin
     id 5 
     name ltoes
     direction 1.53502e-011 -4.22007e-011 1   
     length 1.04662   
     axis -90 7.62852e-016 20   XYZ
    dof rx
    limits (-90.0 20.0)
  end
  begin
     id 6 
     name rhipjoint
     direction -0.610924 -0.726792 0.313919   
     length 2.39233  
     axis 0 0 0  XYZ 
  end
  begin
     id 7 
     name rfemur
     direction -0.34202 -0.939693 0   
     length 6.96955   
     axis 0 0 -20   XYZ
    dof rx ry rz
    limits (-160.0 20.0)
           (-70.0 70.0)
           (-70.0 60.0)
  end
  begin
     id 8 
     name rtibia
     direction -0.34202 -0.939693 0   
     length 8.19584   
     axis 0 0 -20   XYZ
    dof rx
    limits (-10.0 170.0)
 end
 begin
     id 9 
     name rfoot
     direction -0.077777 -0.213691 0.9738   
     length 2.07539  
     axis -90 -7.62852e-016 -20   XYZ
    dof rx rz
    limits (-45.0 90.0)
           (-20.0 70.0)
  end
  begin
     id 10 
     name rtoes
     direction -1.53558e-011 -4.22006e-011 1   
     length 1.04381   
     axis -90 -7.62852e-016 -20   XYZ
    dof rx
    limits (-90.0 20.0)
  end
  begin
     id 11 
     name lowerback
     direction -0.00971646 0.996074 0.0879841   
     length 1.67643   
     axis 0 0 0   XYZ
    dof rx ry rz
    limits (-20.0 45.0)
           (-30.0 30.0)
           (-30.0 30.0)
  end
  begin
     id 12 
     name upperback
     direction 0.0127391 0.991676 0.128127   
     length 1.63741   
     axis 0 0 0   XYZ
    dof rx ry rz
    limits (-20.0 45.0)
           (-30.0 30.0)
           (-30.0 30.0)
  end
  begin
     id 13 
     name thorax
     direction 0.0167583 0.996049 0.0872067   
     length 1.65931   
     axis 0 0 0   XYZ
    dof rx ry rz
    limits (-20.0 45.0)
           (-30.0 30.0)
           (-30.0 30.0)
  end
  begin
     id 14 
     name lowerneck
     direction -0.0317829 0.998312 0.0486079   
     length 1.79021   
     axis 0 0 0   XYZ
    dof rx ry rz
    limits (-20.0 45.0)
           (-30.0 30.0)
           (-30.0 30.0)
  end
  begin
     id 15 
     name upperneck
     direction 0.0896851 0.972452 -0.215159   
     length 1.78797   
     axis 0 0 0   XYZ
    dof rx ry rz
    limits (-20.0 45.0)
           (-30.0 30.0)
           (-30.0 30.0)
  end
  begin
     id 16
     name head
     direction 0.0310949 0.996503 -0.0775582  
     length 1.81549  
     axis 0 0 0   XYZ
    dof rx ry rz
    limits (-20.0 45.0)
           (-30.0 30.0)
           (-30.0 30.0)
  end
  begin
     id 17 
     name lclavicle
     direction 0.853638 0.502051 -0.138733  
     length 3.31627  
     axis 0 0 0   XYZ
    dof ry rz
    limits (-20.0 10.0)
           (0.0 20.0)
  end
  begin
     id 18 
     name lhumerus
     direction 1 -4.48962e-011 -1.41788e-018   
     length 5.54893   
     axis 180 -30 -90   XYZ
    dof rx ry rz
    limits (-60.0 90.0)
           (-90.0 90.0)
           (-90.0 90.0)
  end
  begin
     id 19
     name lradius
     direction 1 -4.48962e-011 -4.95754e-027   
     length 3.02898   
     axis 180 -30 -90   XYZ
    dof rx
    limits (-10.0 170.0)
  end
  begin
     id 20
     name lwrist
     direction 1 -4.48952e-011 -1.03764e-026   
     length 1.51449   
     axis 9.09556e-015 90 90   XYZ
    dof ry
    limits (-180.0 0.0)
 end
  begin
     id 21 
     name lhand
     direction 1 -4.4902e-011 -2.07528e-026   
     length 0.640951   
     axis 1.3242e-014 90 90   XYZ
    dof rx rz
    limits (-90.0 90.0)
           (-45.0 45.0)
  end
  begin
     id 22 
     name lfingers
     direction 1 -4.49014e-011 -4.15056e-026   
     length 0.516751   
     axis 2.64841e-014 90 90   XYZ
    dof rx
    limits (0.0 90.0)
  end
  begin
     id 23
     name lthumb
     direction 0.707107 -6.35008e-011 0.707107   
     length 0.741954   
     axis -90 45 2.85299e-015   XYZ
    dof rx rz
    limits (-45.0 45.0)
           (-45.0 45.0)
  end
  begin
     id 24 
     name rclavicle
     direction -0.888531 0.455324 -0.0565039   
     length 3.20126  
     axis 0 0 0   XYZ 
    dof ry rz
    limits (-10.0 20.0)
           (-20.0 0.0)
  end
  begin
     id 25 
     name rhumerus
     direction -1 -4.48946e-011 -8.98298e-028  
     length 5.3519   
     axis 180 30 90   XYZ
    dof rx ry rz
    limits (-90.0 60.0)
           (-90.0 90.0)
           (-90.0 90.0)
  end
  begin
     id 26 
     name rradius
     direction -1 -4.4899e-011 -3.18779e-027   
     length 3.02531   
     axis 180 30 90   XYZ
    dof rx
    limits (-10.0 170.0)
  end
  begin
     id 27 
     name rwrist
     direction -1 -4.4897e-011 -1.03764e-026   
     length 1.51266   
     axis 9.09556e-015 -90 -90   XYZ
    dof ry
    limits (-180.0 0.0)
  end
  begin
     id 28
     name rhand
     direction -1 -4.48941e-011 -2.07528e-026   
     length 0.78389   
     axis 1.3242e-014 -90 -90   XYZ
    dof rx rz
    limits (-90.0 90.0)
           (-45.0 45.0)
  end
  begin
     id 29
     name rfingers
     direction -1 -4.49012e-011 -4.15056e-026   
     length 0.631992   
     axis 2.64841e-014 -90 -90   XYZ
    dof rx
    limits (0.0 90.0)
  end
  begin
     id 30
     name rthumb
     direction -0.707107 -6.3496e-011 0.707107   
     length 0.907418   
     axis -90 -45 -2.85299e-015   XYZ
    dof rx rz
    limits (-45.0 45.0)
           (-45.0 45.0)
  end
:hierarchy
  begin
    root lhipjoint rhipjoint lowerback
    lhipjoint lfemur
    lfemur ltibia
    ltibia lfoot
    lfoot ltoes
    rhipjoint rfemur
    rfemur rtibia
    rtibia rfoot
    rfoot rtoes
    lowerback upperback
    upperback thorax
    thorax lowerneck lclavicle rclavicle
    lowerneck upperneck
    upperneck head
    lclavicle lhumerus
    lhumerus lradius
    lradius lwrist
    lwrist lhand lthumb
    lhand lfingers
    rclavicle rhumerus
    rhumerus rradius
    rradius rwrist
    rwrist rhand rthumb
    rhand rfingers
  end

#!OML:ASF E:\Style3\Style3.ASF
:FULLY-SPECIFIED
:DEGREES
1014
root -0.516753 17.9028 0.527057 -29.3677 87.6278 -45.2333
lowerback -7.27781 -1.48261 -2.03053
upperback -12.0077 -1.22324 1.43866
thorax -8.53576 -0.081098 2.61906
lowerneck -13.4337 -3.03632 -6.00256
upperneck 25.0367 -5.1269 10.3137
head 10.6764 -1.52973 4.10463
rclavicle 3.08737e-015 2.08724e-015
rhumerus 54.2519 61.6555 -8.05266
rradius 73.3729
rwrist -28.1577
rhand 9.78335 1.43904
rfingers 7.12502
rthumb 34.9208 -25.1355
lclavicle 3.08737e-015 2.08724e-015
lhumerus 46.803 -37.1232 19.5561
lradius 64.9613
lwrist 21.0672
lhand -10.8846 38.5427
lfingers 7.12502
lthumb 15.1317 67.9695
rfemur -16.7337 12.6391 16.9509
rtibia 12.4923
rfoot -10.8427 -17.9409
rtoes -17.0317
lfemur 0 0 0
ltibia 0
lfoot 0 0
ltoes 0
1015
root -0.514398 17.9026 0.524129 -30.1294 87.6222 -45.9842
lowerback -7.32963 -1.5556 -1.96518
upperback -12.0024 -1.31808 1.49628
thorax -8.49409 -0.131862 2.64263
lowerneck -13.6086 -2.98078 -5.99104
upperneck 25.3337 -5.04168 10.2388
head 10.8101 -1.48607 4.09722
rclavicle 5.2212e-015 7.70291e-015
rhumerus 54.5003 60.489 -7.9632
rradius 73.5708
rwrist -28.3581
rhand 9.89835 1.1182
rfingers 7.12502
rthumb 35.0299 -25.4309
lclavicle 5.2212e-015 7.70291e-015
lhumerus 46.3304 -37.7764 19.7812
lradius 65.1471
lwrist 21.3107
lhand -10.576 38.5067
lfingers 7.12502
lthumb 15.4289 67.9109
rfemur -16.7401 12.5915 16.9816
rtibia 12.5495
rfoot -10.9243 -17.9005
rtoes -17.034
lfemur 0 0 0
ltibia 0
lfoot 0 0
ltoes 0
1016
root -0.512199 17.9019 0.521956 -30.9172 87.6494 -46.7138
lowerback -7.23924 -1.62072 -1.94509
upperback -12.0188 -1.40498 1.54778
thorax -8.55843 -0.173228 2.68828
lowerneck -13.8075 -2.9564 -5.98115
upperneck 25.6558 -4.99503 10.1417
head 10.9622 -1.46188 4.07774
rclavicle 3.22734e-015 -5.0395e-015
rhumerus 54.7261 59.3514 -7.84316
rradius 73.6627
rwrist -28.5672
rhand 9.75948 1.09991
rfingers 7.12502
rthumb 34.8982 -25.4799
lclavicle 3.22734e-015 -5.0395e-015
lhumerus 45.8686 -38.5313 19.9322
lradius 65.5631
lwrist 21.9462
lhand -10.2813 38.8611
lfingers 7.12502
lthumb 15.7127 68.2432
rfemur -16.6791 12.5043 17.0129
rtibia 12.5986
rfoot -11.0375 -17.8267
rtoes -16.9211
lfemur 0 0 0
ltibia 0
lfoot 0 0
ltoes 0
1017
root -0.508761 17.9019 0.520556 -31.4097 87.6861 -47.1659
lowerback -7.13125 -1.63709 -1.93101
upperback -12.0911 -1.42669 1.51002
thorax -8.70211 -0.18208 2.6436
lowerneck -13.8017 -2.96841 -5.83863
upperneck 25.8448 -5.0342 10.0629
head 11.03 -1.46804 4.02543
rclavicle 2.30155e-015 -9.19379e-016
rhumerus 54.1453 58.2394 -8.57292
rradius 73.5926
rwrist -28.5058
rhand 9.83783 1.34674
rfingers 7.12502
rthumb 34.9725 -25.2157
lclavicle 2.30155e-015 -9.19379e-016
lhumerus 45.5324 -39.4825 20.0891
lradius 65.9353
lwrist 22.4976
lhand -10.0613 39.3165
lfingers 7.12502
lthumb 15.9246 68.6818
rfemur -16.5898 12.4313 17.0233
rtibia 12.5708
rfoot -11.0248 -17.7963
rtoes -17.0596
lfemur 0 0 0
ltibia 0
lfoot 0 0
ltoes 0
1018
root -0.503689 17.901 0.519218 -32.6261 87.6756 -48.2648
lowerback -6.83773 -1.63372 -1.94789
upperback -12.2023 -1.41923 1.54786
thorax -8.99742 -0.166081 2.70148
lowerneck -13.8096 -3.01257 -5.78088
upperneck 26.095 -5.0758 9.88864
head 11.1233 -1.49378 3.95393
rclavicle -9.21942e-015 3.93532e-015
rhumerus 53.4973 57.171 -9.25653
rradius 73.5487
rwrist -28.5568
rhand 10.0247 1.5519
rfingers 7.12502
rthumb 35.1498 -24.969
lclavicle -9.21942e-015 3.93532e-015
lhumerus 45.1167 -40.558 20.4482
lradius 66.1693
lwrist 22.8936
lhand -9.93729 39.5349
lfingers 7.12502
lthumb 16.044 68.8906
rfemur -16.4043 12.4152 17.0979
rtibia 12.5201
rfoot -10.9821 -17.792
rtoes -17.2554
lfemur 0 0 0
ltibia 0
lfoot 0 0
ltoes 0
1019
root -0.499882 17.9 0.517289 -34.4365 87.6228 -49.881
lowerback -6.68377 -1.61119 -1.81458
upperback -12.1649 -1.3998 1.5363
thorax -9.04769 -0.171272 2.61762
lowerneck -13.7905 -3.0206 -5.69996
upperneck 26.1346 -5.08603 9.80063
head 11.1306 -1.49994 3.90683
rclavicle -2.81622e-014 -2.67117e-015
rhumerus 53.0053 55.9471 -9.86446
rradius 73.559
rwrist -28.8384
rhand 9.88856 1.43557
rfingers 7.12502
rthumb 35.0206 -25.1157
lclavicle -2.81622e-014 -2.67117e-015
lhumerus 44.7674 -41.503 20.7078
lradius 66.3251
lwrist 23.1162
lhand -9.81417 39.5138
lfingers 7.12502
lthumb 16.1626 68.8599
rfemur -16.1425 12.407 17.2371
rtibia 12.4724
rfoot -10.9675 -17.7677
rtoes -17.4087
lfemur 0 0 0
ltibia 0
lfoot 0 0
ltoes 0
1020
root -0.499313 17.8994 0.516788 -36.8775 87.6145 -52.3289
lowerback -6.69422 -1.6264 -1.68969
upperback -12.1703 -1.41964 1.54231
thorax -9.04879 -0.191493 2.55425
lowerneck -13.8354 -3.01971 -5.70236
upperneck 26.1899 -5.08339 9.79138
head 11.1601 -1.49758 3.90615
rclavicle 1.90305e-014 3.926e-015
rhumerus 52.7078 54.7346 -10.2589
rradius 73.5647
rwrist -28.7262
rhand 9.49291 1.60271
rfingers 7.12502
rthumb 34.6452 -25.0355
lclavicle 1.90305e-014 3.926e-015
lhumerus 44.3796 -42.4252 20.976
lradius 66.4903
lwrist 23.4069
lhand -9.71411 39.5304
lfingers 7.12502
lthumb 16.2589 68.8687
rfemur -16.0982 12.4349 17.3207
rtibia 12.4066
rfoot -10.9639 -17.8306
rtoes -17.1019
lfemur 0 0 0
ltibia 0
lfoot 0 0
ltoes 0
1021
root -0.50054 17.9002 0.517201 -38.3122 87.6342 -53.9203
lowerback -6.0455 -1.65617 -1.60067
upperback -12.635 -1.43641 1.53263
thorax -9.96169 -0.174959 2.51619
lowerneck -13.7472 -3.02202 -5.66826
upperneck 26.5243 -5.08174 9.69256
head 11.265 -1.49482 3.87671
rclavicle 7.56624e-015 8.77137e-015
rhumerus 52.1051 54.0851 -10.9541
rradius 73.5132
rwrist -28.4699
rhand 9.10477 2.0572
rfingers 7.12502
rthumb 34.2768 -24.6647
lclavicle 7.56624e-015 8.77137e-015
lhumerus 43.6645 -43.9245 21.4027
lradius 66.7254
lwrist 23.7885
lhand -9.58187 39.662
lfingers 7.12502
lthumb 16.3863 68.9898
rfemur -16.237 12.4207 17.3262
rtibia 12.3426
rfoot -10.8364 -17.9166
rtoes -17.2289
lfemur 0 0 0
ltibia 0
lfoot 0 0
ltoes 0
1022
root -0.501048 17.9014 0.517368 -38.9971 87.6559 -54.6899
lowerback -6.06729 -1.71825 -1.69184
upperback -12.6842 -1.50868 1.61515
thorax -9.99808 -0.193686 2.65732
lowerneck -13.7756 -2.98595 -5.63176
upperneck 26.5641 -5.00506 9.55946
head 11.2735 -1.47172 3.83213
rclavicle -7.69301e-015 1.11382e-014
rhumerus 51.7932 52.8616 -11.4906
rradius 73.4579
rwrist -28.6626
rhand 8.87023 2.12818
rfingers 7.12502
rthumb 34.054 -24.6436
lclavicle -7.69301e-015 1.11382e-014
lhumerus 43.079 -44.8467 21.7976
lradius 66.9664
lwrist 24.42
lhand -9.81883 39.6912
lfingers 7.12502
lthumb 16.1581 69.0377
rfemur -16.3126 12.453 17.302
rtibia 12.3096
rfoot -10.8179 -17.9669
rtoes -17.2944
lfemur 0 0 0
ltibia 0
lfoot 0 0
ltoes 0
1023
root -0.500463 17.9026 0.517011 -40.079 87.6532 -55.7895
lowerback -6.49514 -1.76309 -1.72011
upperback -12.4578 -1.57312 1.67377
thorax -9.48086 -0.237005 2.72245
lowerneck -13.8666 -2.94839 -5.61022
upperneck 26.3649 -4.94106 9.52725
head 11.2086 -1.45084 3.81695
rclavicle 1.61544e-014 5.06901e-015
rhumerus 51.4765 51.3108 -12.1214
rradius 73.4354
rwrist -29.0102
rhand 8.64571 2.01922
rfingers 7.12502
rthumb 33.8407 -24.7998
lclavicle 1.61544e-014 5.06901e-015
lhumerus 42.6895 -45.3761 22.1349
lradius 67.1317
lwrist 25.1633
lhand -10.1365 39.5091
lfingers 7.12502
lthumb 15.8522 68.8801
rfemur -16.3208 12.3 17.3638
rtibia 12.3019
rfoot -10.7867 -17.8619
rtoes -17.1255
lfemur 0 0 0
ltibia 0
lfoot 0 0
ltoes 0
1024
root -0.500351 17.902 0.517619 -40.4779 87.6727 -56.1941
lowerback -6.98176 -1.76718 -1.63192
upperback -12.1894 -1.59571 1.58637
thorax -8.8943 -0.281303 2.56335
lowerneck -13.9794 -2.92747 -5.5084
upperneck 26.1391 -4.94009 9.57215
head 11.1447 -1.44061 3.80711
rclavicle 9.90817e-015 5.42931e-015
rhumerus 50.8348 49.7616 -13.2214
rradius 73.3532
rwrist -29.253
rhand 8.30769 1.99327
rfingers 7.12502
rthumb 33.5195 -24.8959
lclavicle 9.90817e-015 5.42931e-015
lhumerus 42.3103 -45.7847 22.4492
lradius 67.3487
lwrist 25.7432
lhand -9.99229 39.5806
lfingers 7.12502
lthumb 15.9911 68.9406
rfemur -16.3217 12.1526 17.3941
rtibia 12.2957
rfoot -10.7391 -17.797
rtoes -17.4552
lfemur 0 0 0
ltibia 0
lfoot 0 0
ltoes 0
1025
root -0.499621 17.9008 0.518425 -40.9249 87.6798 -56.6878
lowerback -7.97961 -1.78288 -1.59095
upperback -11.6749 -1.637 1.53932
thorax -7.74206 -0.34383 2.4573
lowerneck -14.1564 -2.89497 -5.4311
upperneck 25.6814 -4.91989 9.66507
head 11.0071 -1.42575 3.81329
rclavicle 6.37975e-015 2.18663e-014
rhumerus 50.3896 47.9261 -14.1654
rradius 73.3087
rwrist -29.5175
rhand 7.83323 1.89854
rfingers 7.12502
rthumb 33.0685 -25.0872
lclavicle 6.37975e-015 2.18663e-014
lhumerus 41.9228 -45.7252 22.8687
lradius 67.4803
lwrist 26.236
lhand -9.70518 39.2009
lfingers 7.12502
lthumb 16.2675 68.5384
rfemur -16.3788 12.1052 17.4003
rtibia 12.3009
rfoot -10.7147 -17.797
rtoes -17.5254
lfemur 0 0 0
ltibia 0
lfoot 0 0
ltoes 0
1026
root -0.498822 17.9013 0.51901 -42.2521 87.6912 -58.0269
lowerback -7.94018 -1.80869 -1.55625
upperback -11.6891 -1.67276 1.53445
thorax -7.77938 -0.363865 2.43346
lowerneck -14.2366 -2.89092 -5.42283
upperneck 25.6967 -4.9225 9.688
head 11.0296 -1.42152 3.82042
rclavicle -7.62836e-015 2.83268e-015
rhumerus 49.5704 46.8452 -15.3827
rradius 73.2929
rwrist -29.71
rhand 7.45878 2.03948
rfingers 7.12502
rthumb 32.7123 -25.021
lclavicle -7.62836e-015 2.83268e-015
lhumerus 40.9453 -46.2694 23.8116
lradius 67.6782
lwrist 26.9353
lhand -9.82025 38.705
lfingers 7.12502
lthumb 16.1567 68.0516
rfemur -16.3869 12.0287 17.4431
rtibia 12.3246
rfoot -10.6815 -17.7697
rtoes -17.8266
lfemur 0 0 0
ltibia 0
lfoot 0 0
ltoes 0
